<svg width="301" height="268" viewBox="0 0 301 268" fill="none" xmlns="http://www.w3.org/2000/svg">
<path d="M190.559 205.46C184.704 212.325 182.34 220.923 184.489 222.748C186.64 224.575 194.768 220.87 200.623 214.007C207.138 206.369 208.281 199.404 209.043 193.964C203.781 195.583 197.074 197.822 190.56 205.46" fill="#1C1B1E"/>
<path d="M213.54 226.985C203.181 226.754 193.81 230.889 193.745 234.127C193.681 237.368 202.876 241.914 213.235 242.146C224.76 242.402 231.791 238.366 237.185 235.095C231.928 231.588 225.065 227.243 213.54 226.985Z" fill="#1C1B1E"/>
<path d="M240.329 206.994C230.407 209.976 222.772 216.804 223.711 219.904C224.65 223.006 234.801 224.489 244.724 221.507C255.764 218.191 261.204 212.178 265.323 207.4C259.238 205.689 251.369 203.678 240.328 206.994" fill="#1C1B1E"/>
<path d="M288.223 172.671C281.907 172.923 273.801 173.441 264.326 180.007C255.811 185.909 250.659 194.763 252.511 197.42C254.362 200.08 264.475 198.354 272.992 192.452C282.466 185.885 285.781 178.486 288.224 172.67" fill="#1C1B1E"/>
<path d="M217.386 205.981C219.996 207.055 226.581 201.02 230.028 192.683C233.865 183.406 232.799 176.427 231.842 171.019C227.339 174.184 221.652 178.386 217.816 187.663C214.369 196.001 214.776 204.91 217.385 205.981" fill="#1C1B1E"/>
<path d="M238.841 166.3C238.139 175.294 241.28 183.641 244.092 183.854C246.906 184.068 251.304 176.293 252.006 167.298C252.788 157.291 249.618 150.983 247.036 146.135C243.732 150.537 239.621 156.291 238.84 166.3" fill="#1C1B1E"/>
<path d="M298.834 132.609C292.904 134.801 285.356 137.798 278.373 146.972C272.098 155.217 269.935 165.229 272.517 167.184C275.1 169.141 284.184 164.375 290.46 156.13C297.443 146.957 298.31 138.896 298.834 132.609Z" fill="#1C1B1E"/>
<path d="M283.843 109.951C280.422 119.731 281.459 129.921 284.519 130.984C287.58 132.047 294.747 124.706 298.168 114.925C301.973 104.044 300.307 96.1096 298.864 89.9688C293.903 93.8853 287.649 99.0684 283.843 109.951Z" fill="#1C1B1E"/>
<path d="M261.763 152.863C264.506 152.196 266.286 143.443 264.174 134.673C261.824 124.913 256.861 119.893 252.907 116.08C251.125 121.287 248.995 128.031 251.345 137.79C253.455 146.561 259.023 153.529 261.763 152.863Z" fill="#1C1B1E"/>
<path d="M270.232 119.362C272.634 117.882 271.622 109.007 266.903 101.317C261.653 92.7615 255.381 89.52 250.442 87.1162C250.357 92.6196 250.415 99.6911 255.665 108.246C260.384 115.936 267.831 120.843 270.232 119.362Z" fill="#1C1B1E"/>
<path d="M286.464 91.1672C289.705 91.233 294.251 82.0363 294.483 71.6774C294.739 60.1521 290.703 53.1214 287.431 47.7275C283.925 52.9857 279.578 59.8475 279.321 71.3728C279.09 81.7317 283.226 91.1026 286.464 91.1672Z" fill="#1C1B1E"/>
<path d="M243.255 59.373C244.316 64.7742 245.842 71.6787 252.756 78.9557C258.97 85.4961 267.276 88.747 269.316 86.7992C271.357 84.8514 268.523 76.3808 262.309 69.8404C255.394 62.5634 248.586 60.697 243.255 59.373Z" fill="#1C1B1E"/>
<path d="M252.359 39.5622C244.9 32.8444 237.966 31.5121 232.55 30.6055C234.027 35.9075 236.085 42.6733 243.543 49.3911C250.247 55.4286 258.779 58.0254 260.661 55.9252C262.545 53.8251 259.062 45.6008 252.359 39.5622Z" fill="#1C1B1E"/>
<path d="M277.634 49.8921C280.735 48.9532 282.22 38.8029 279.238 28.8791C275.921 17.8389 269.909 12.3992 265.13 8.28027C263.419 14.3648 261.408 22.2344 264.725 33.2745C267.706 43.1973 274.535 50.8311 277.634 49.8921Z" fill="#1C1B1E"/>
<path d="M30.5114 154.079C37.3482 171.86 45.4546 186.682 62.7941 201.225C75.2866 211.702 92.5646 221.862 115.617 232.283C118.863 233.75 127.709 237.42 138.406 241.801C139.978 242.46 141.631 243.152 143.342 243.87C124.891 250.584 104.543 257.859 98.0596 259.924C96.7743 260.334 96.0961 261.536 96.1504 263.324L96.2756 265.271C96.2964 265.763 96.4456 266.205 96.7085 266.551C97.2552 267.275 98.1525 267.69 99.0476 267.69C99.3596 267.69 99.6715 267.639 99.9688 267.535C106.948 265.072 130.62 255.198 150.5 246.87C170.38 255.198 194.051 265.072 201.032 267.535C201.328 267.639 201.64 267.69 201.953 267.69C202.848 267.69 203.744 267.275 204.291 266.551C204.554 266.205 204.703 265.762 204.723 265.285L204.85 263.305C204.905 261.534 204.226 260.333 202.939 259.924C196.454 257.858 176.106 250.583 157.658 243.87C159.37 243.152 161.021 242.46 162.594 241.801C173.291 237.42 182.137 233.75 185.383 232.283C208.436 221.862 225.715 211.702 238.206 201.225C255.547 186.682 263.651 171.86 270.491 154.072C285.571 113.5 280.995 70.1426 257.398 27.7242C257.515 24.2042 255.375 17.983 251.241 12.6445C245.094 4.70915 238.51 2.16664 233.34 0.310614C233.85 5.79105 234.674 12.8156 240.82 20.7519C245.147 26.3388 250.942 30.032 254.324 30.5453C276.9 71.574 281.207 113.448 266.646 152.619C254.703 183.677 238.601 203.951 183.732 228.582C181.451 229.604 176.174 231.685 169.372 234.291C164.527 236.107 157.858 238.569 150.5 241.26C143.125 238.562 136.442 236.095 131.595 234.279C124.81 231.678 119.545 229.603 117.268 228.582C62.3998 203.951 46.2976 183.676 34.357 152.626C19.7947 113.448 24.1004 71.574 46.6763 30.5443C50.0597 30.032 55.8541 26.3388 60.1807 20.7509C66.3267 12.8145 67.1509 5.79 67.6622 0.30957C62.4916 2.16455 55.9063 4.70706 49.7592 12.6434C45.6267 17.982 43.4848 24.2042 43.6038 27.7232C20.0055 70.1415 15.4296 113.5 30.5125 154.078" fill="#1C1B1E"/>
<path d="M116.514 222.748C118.665 220.924 116.299 212.324 110.444 205.46C103.93 197.823 97.2217 195.583 91.9614 193.964C92.722 199.404 93.8654 206.369 100.38 214.007C106.235 220.869 114.363 224.574 116.514 222.748Z" fill="#1C1B1E"/>
<path d="M107.255 234.127C107.19 230.889 97.8192 226.754 87.4603 226.985C75.9361 227.241 69.0733 231.588 63.8151 235.095C69.2089 238.366 76.2397 242.403 87.765 242.146C98.1238 241.914 107.319 237.368 107.255 234.127Z" fill="#1C1B1E"/>
<path d="M56.2795 221.507C66.2023 224.489 76.3536 223.006 77.2925 219.904C78.2325 216.804 70.5966 209.976 60.6739 206.994C49.6337 203.677 41.7641 205.689 35.6786 207.4C39.7986 212.178 45.2394 218.19 56.2795 221.507Z" fill="#1C1B1E"/>
<path d="M28.0159 192.452C36.5324 198.354 46.644 200.08 48.4969 197.42C50.3477 194.762 45.1969 185.908 36.6795 180.007C27.2053 173.44 19.0999 172.922 12.7838 172.67C15.2251 178.486 18.5407 185.884 28.0159 192.452Z" fill="#1C1B1E"/>
<path d="M70.974 192.683C74.421 201.02 81.0063 207.055 83.6166 205.981C86.2259 204.91 86.6328 196.001 83.1858 187.663C79.3506 178.387 73.6626 174.183 69.1597 171.019C68.2019 176.427 67.1378 183.406 70.974 192.683Z" fill="#1C1B1E"/>
<path d="M56.9089 183.854C59.7227 183.641 62.863 175.295 62.1609 166.3C61.3794 156.292 57.2699 150.536 53.9658 146.135C51.3836 150.983 48.213 157.291 48.9955 167.298C49.6976 176.292 54.0951 184.069 56.9089 183.854Z" fill="#1C1B1E"/>
<path d="M28.4867 167.183C31.0678 165.228 28.9051 155.215 22.6296 146.971C15.6479 137.798 8.09861 134.801 2.16956 132.609C2.69433 138.895 3.56131 146.957 10.5441 156.129C16.8195 164.374 25.9035 169.14 28.4867 167.183Z" fill="#1C1B1E"/>
<path d="M16.4814 130.984C19.5425 129.922 20.5785 119.731 17.1575 109.951C13.3516 99.0694 7.09804 93.8863 2.13717 89.9688C0.693249 96.1106 -0.972894 104.045 2.83305 114.926C6.25401 124.706 13.4194 132.047 16.4814 130.984Z" fill="#1C1B1E"/>
<path d="M39.239 152.863C41.9787 153.529 47.5468 146.561 49.6574 137.79C52.0069 128.031 49.8765 121.287 48.0945 116.08C44.1404 119.892 39.1764 124.913 36.828 134.673C34.7163 143.443 36.4972 152.196 39.239 152.863Z" fill="#1C1B1E"/>
<path d="M30.7703 119.362C33.1699 120.843 40.618 115.937 45.3368 108.246C50.5867 99.6911 50.644 92.6196 50.5585 87.1162C45.6206 89.52 39.3483 92.7604 34.0974 101.317C29.3785 109.007 28.3697 117.882 30.7703 119.362Z" fill="#1C1B1E"/>
<path d="M14.5409 91.1672C17.7793 91.1026 21.9139 81.7317 21.6833 71.3728C21.4267 59.8486 17.0814 52.9857 13.5738 47.7275C10.3031 53.1214 6.26657 60.1521 6.52217 71.6774C6.75379 82.0363 11.3015 91.233 14.5409 91.1672Z" fill="#1C1B1E"/>
<path d="M48.246 78.9557C55.16 71.6787 56.6863 64.7731 57.7463 59.373C52.4151 60.698 45.6076 62.5634 38.6936 69.8404C32.4798 76.3808 29.6451 84.8514 31.6858 86.7992C33.7275 88.747 42.0322 85.4961 48.246 78.9557Z" fill="#1C1B1E"/>
<path d="M40.3402 55.9252C42.2234 58.0254 50.7554 55.4286 57.4576 49.3911C64.9161 42.6733 66.9745 35.9065 68.4518 30.6055C63.034 31.5121 56.1013 32.8444 48.6428 39.5622C41.9396 45.5997 38.456 53.824 40.3402 55.9252Z" fill="#1C1B1E"/>
<path d="M23.3665 49.8863C26.4661 50.8253 33.2945 43.1905 36.2762 33.2677C39.5939 22.2275 37.5814 14.3579 35.8704 8.27344C31.0921 12.3924 25.0806 17.8321 21.7629 28.8723C18.7822 38.7961 20.2647 48.9484 23.3665 49.8863Z" fill="#1C1B1E"/>
<path d="M144.557 107.912C144.557 106.496 145.76 105.486 147.176 105.486C152.349 105.486 157.075 107.097 159.601 108.78C166.158 112.967 169.918 122.25 169.918 134.244C169.918 144.132 167.497 160.722 151.294 160.722C146.175 160.722 144.557 159.188 144.557 149.753V107.912ZM144.557 45.4328C144.557 44.0264 145.752 43.004 147.158 43.004C159.974 43.004 165.482 50.739 165.482 67.9774C165.482 75.9972 164.076 82.0848 161.322 86.0452C158.556 89.921 155.192 92.7702 147.115 92.7702C145.727 92.7702 144.557 91.7301 144.557 90.3435V45.4317V45.4328ZM176.185 170.1C194.72 164.562 205.786 150.78 205.786 133.236C205.786 120.677 200.538 105.718 178.178 99.0279C177.057 98.692 177 97.1573 178.095 96.74C190.678 91.9262 199.944 81.8282 199.944 66.5679C199.944 53.6915 192.864 42.5262 181.024 36.715C171.434 31.919 159.804 30.6055 126.922 30.6055H99.21V39.2846H103.003C106.373 39.2846 108.489 40.0974 109.995 41.9002C111.3 43.6394 111.705 45.631 111.705 54.6837V148.747C111.705 157.871 111.319 159.763 109.935 161.609C108.661 163.452 106.363 164.347 102.909 164.347H99.209V173.027H145.449C162.281 173.027 169.187 172.366 176.184 170.101" fill="#1C1B1E"/>
</svg>
