<?xml version="1.0" encoding="UTF-8" standalone="no"?>
<!-- Created with Inkscape (http://www.inkscape.org/) -->

<svg
   xmlns:dc="http://purl.org/dc/elements/1.1/"
   xmlns:cc="http://creativecommons.org/ns#"
   xmlns:rdf="http://www.w3.org/1999/02/22-rdf-syntax-ns#"
   xmlns:svg="http://www.w3.org/2000/svg"
   xmlns="http://www.w3.org/2000/svg"
   xmlns:sodipodi="http://sodipodi.sourceforge.net/DTD/sodipodi-0.dtd"
   xmlns:inkscape="http://www.inkscape.org/namespaces/inkscape"
   version="1.1"
   id="svg4504"
   xml:space="preserve"
   width="301.34531"
   height="92.556137"
   viewBox="0 0 301.34531 92.556137"
   sodipodi:docname="logo.svg"
   inkscape:version="0.92.0 r15299"><metadata
     id="metadata4510"><rdf:RDF><cc:Work
         rdf:about=""><dc:format>image/svg+xml</dc:format><dc:type
           rdf:resource="http://purl.org/dc/dcmitype/StillImage" /><dc:title></dc:title></cc:Work></rdf:RDF></metadata><defs
     id="defs4508"><clipPath
       clipPathUnits="userSpaceOnUse"
       id="clipPath4520"><path
         d="M 0,0 H 612 V 792 H 0 Z"
         id="path4518"
         inkscape:connector-curvature="0" /></clipPath><clipPath
       clipPathUnits="userSpaceOnUse"
       id="clipPath4528"><path
         d="M -7.582,-7.283 H 620.356 V 799.284 H -7.582 Z"
         id="path4526"
         inkscape:connector-curvature="0" /></clipPath><clipPath
       clipPathUnits="userSpaceOnUse"
       id="clipPath4536"><path
         d="m -10.395,801.967 h 635.28 v -814.8 h -635.28 z"
         id="path4534"
         inkscape:connector-curvature="0" /></clipPath><clipPath
       clipPathUnits="userSpaceOnUse"
       id="clipPath4544"><path
         d="M 0,-1 H 1 V 0 H 0 Z"
         id="path4542"
         inkscape:connector-curvature="0" /></clipPath><clipPath
       clipPathUnits="userSpaceOnUse"
       id="clipPath4564"><path
         d="m 33.588,740.749 c 0,0 1.583,-4.957 7.354,-4.957 5.465,0 6.993,4.934 6.993,4.934 z"
         id="path4562"
         inkscape:connector-curvature="0" /></clipPath><clipPath
       clipPathUnits="userSpaceOnUse"
       id="clipPath4572"><path
         d="m 33.588,740.749 h 14.347 v -4.957 H 33.588 Z"
         id="path4570"
         inkscape:connector-curvature="0" /></clipPath><clipPath
       clipPathUnits="userSpaceOnUse"
       id="clipPath4582"><path
         d="m 33.588,740.749 h 14.347 v -4.957 H 33.588 Z"
         id="path4580"
         inkscape:connector-curvature="0" /></clipPath><radialGradient
       fx="0"
       fy="0"
       cx="0"
       cy="0"
       r="1"
       gradientUnits="userSpaceOnUse"
       gradientTransform="matrix(8.0154114,0,0,-8.0154114,36.415558,741.30121)"
       id="radialGradient4592"><stop
         style="stop-opacity:1;stop-color:#ffffff"
         offset="0"
         id="stop4588" /><stop
         style="stop-opacity:1;stop-color:#ec202f"
         offset="1"
         id="stop4590" /></radialGradient><clipPath
       clipPathUnits="userSpaceOnUse"
       id="clipPath4608"><path
         d="m 50.885,740.749 c 0,0 1.581,-4.957 7.351,-4.957 5.468,0 6.992,4.934 6.992,4.934 z"
         id="path4606"
         inkscape:connector-curvature="0" /></clipPath><clipPath
       clipPathUnits="userSpaceOnUse"
       id="clipPath4616"><path
         d="m 50.885,740.749 h 14.344 v -4.957 H 50.885 Z"
         id="path4614"
         inkscape:connector-curvature="0" /></clipPath><clipPath
       clipPathUnits="userSpaceOnUse"
       id="clipPath4626"><path
         d="m 50.885,740.749 h 14.344 v -4.957 H 50.885 Z"
         id="path4624"
         inkscape:connector-curvature="0" /></clipPath><radialGradient
       fx="0"
       fy="0"
       cx="0"
       cy="0"
       r="1"
       gradientUnits="userSpaceOnUse"
       gradientTransform="matrix(8.4697571,0,0,-8.4697571,53.741638,741.20264)"
       id="radialGradient4636"><stop
         style="stop-opacity:1;stop-color:#ffffff"
         offset="0"
         id="stop4632" /><stop
         style="stop-opacity:1;stop-color:#ec202f"
         offset="1"
         id="stop4634" /></radialGradient></defs><sodipodi:namedview
     pagecolor="#ffffff"
     bordercolor="#666666"
     borderopacity="1"
     objecttolerance="10"
     gridtolerance="10"
     guidetolerance="10"
     inkscape:pageopacity="0"
     inkscape:pageshadow="2"
     inkscape:window-width="1280"
     inkscape:window-height="781"
     id="namedview4506"
     showgrid="false"
     fit-margin-top="0"
     fit-margin-left="0"
     fit-margin-right="0"
     fit-margin-bottom="0"
     inkscape:zoom="1"
     inkscape:cx="138.98553"
     inkscape:cy="88.925857"
     inkscape:window-x="0"
     inkscape:window-y="0"
     inkscape:window-maximized="0"
     inkscape:current-layer="g4512" /><g
     id="g4512"
     inkscape:groupmode="layer"
     inkscape:label="CGC"
     transform="matrix(1.3333333,0,0,-1.3333333,-155.44679,985.08321)"><g
       id="g14545"
       transform="matrix(2.443103,0,0,2.443103,-40.408087,-1126.4105)"><path
         inkscape:connector-curvature="0"
         id="path4554"
         style="fill:#221e1f;fill-opacity:1;fill-rule:nonzero;stroke:none"
         d="m 71.447741,761.43221 6.372,-19.077 -12.407,0.007 6.035,19.07 -7.041,-18.912 c 0,0 1.922,-4.976 7.388,-4.976 5.465,0 6.993,4.877 6.993,4.877 z" /><path
         inkscape:connector-curvature="0"
         id="path4556"
         style="fill:none;stroke:#221e1f;stroke-width:0.18099999;stroke-linecap:butt;stroke-linejoin:round;stroke-miterlimit:4;stroke-dasharray:none;stroke-opacity:1"
         d="m 71.447741,761.43221 6.372,-19.077 -12.407,0.007 6.035,19.07 -7.041,-18.912 c 0,0 1.922,-4.976 7.388,-4.976 5.465,0 6.993,4.877 6.993,4.877 z" /><g
         transform="translate(30.852741,1.6952055)"
         id="g4558"><g
           clip-path="url(#clipPath4564)"
           id="g4560"><g
             id="g4566"><g
               clip-path="url(#clipPath4572)"
               id="g4568"><path
                 inkscape:connector-curvature="0"
                 id="path4574"
                 style="fill:#ec202f;fill-opacity:1;fill-rule:nonzero;stroke:none"
                 d="m 33.588,740.749 h 14.347 v -4.957 H 33.588 Z" /><g
                 id="g4576"><g
                   clip-path="url(#clipPath4582)"
                   id="g4578"><g
                     id="g4584"><g
                       id="g4586"><path
                         inkscape:connector-curvature="0"
                         id="path4594"
                         style="fill:url(#radialGradient4592);stroke:none"
                         d="m 33.588,740.749 h 14.347 v -4.957 H 33.588 Z" /></g></g></g></g></g></g></g></g><path
         inkscape:connector-curvature="0"
         id="path4596"
         style="fill:none;stroke:#221e1f;stroke-width:0.36199999;stroke-linecap:round;stroke-linejoin:round;stroke-miterlimit:4;stroke-dasharray:none;stroke-opacity:1"
         d="m 64.440741,742.44421 c 0,0 1.583,-4.957 7.354,-4.957 5.465,0 6.993,4.934 6.993,4.934 z" /><path
         inkscape:connector-curvature="0"
         id="path4598"
         style="fill:#221e1f;fill-opacity:1;fill-rule:nonzero;stroke:none"
         d="m 88.745741,761.43221 6.369,-19.077 -12.409,0.007 6.04,19.07 -7.041,-18.912 c 0,0 1.918,-4.976 7.384,-4.976 5.468,0 6.992,4.877 6.992,4.877 z" /><path
         inkscape:connector-curvature="0"
         id="path4600"
         style="fill:none;stroke:#221e1f;stroke-width:0.18099999;stroke-linecap:butt;stroke-linejoin:round;stroke-miterlimit:4;stroke-dasharray:none;stroke-opacity:1"
         d="m 88.745741,761.43221 6.369,-19.077 -12.409,0.007 6.04,19.07 -7.041,-18.912 c 0,0 1.918,-4.976 7.384,-4.976 5.468,0 6.992,4.877 6.992,4.877 z" /><g
         transform="translate(30.852741,1.6952055)"
         id="g4602"><g
           clip-path="url(#clipPath4608)"
           id="g4604"><g
             id="g4610"><g
               clip-path="url(#clipPath4616)"
               id="g4612"><path
                 inkscape:connector-curvature="0"
                 id="path4618"
                 style="fill:#ec202f;fill-opacity:1;fill-rule:nonzero;stroke:none"
                 d="m 50.885,740.749 h 14.344 v -4.957 H 50.885 Z" /><g
                 id="g4620"><g
                   clip-path="url(#clipPath4626)"
                   id="g4622"><g
                     id="g4628"><g
                       id="g4630"><path
                         inkscape:connector-curvature="0"
                         id="path4638"
                         style="fill:url(#radialGradient4636);stroke:none"
                         d="m 50.885,740.749 h 14.344 v -4.957 H 50.885 Z" /></g></g></g></g></g></g></g></g><path
         inkscape:connector-curvature="0"
         id="path4640"
         style="fill:none;stroke:#221e1f;stroke-width:0.36199999;stroke-linecap:round;stroke-linejoin:round;stroke-miterlimit:4;stroke-dasharray:none;stroke-opacity:1"
         d="m 81.737741,742.44421 c 0,0 1.581,-4.957 7.351,-4.957 5.468,0 6.992,4.934 6.992,4.934 z" /><path
         inkscape:connector-curvature="0"
         id="path4642"
         style="fill:#221e1f;fill-opacity:1;fill-rule:nonzero;stroke:none"
         d="m 74.698741,735.72121 c 0,0 5.633,0.541 5.633,5.066 0,-4.35 5.738,-5.066 5.738,-5.066 z" /><path
         inkscape:connector-curvature="0"
         id="path4644"
         style="fill:none;stroke:#221e1f;stroke-width:0.18099999;stroke-linecap:butt;stroke-linejoin:round;stroke-miterlimit:4;stroke-dasharray:none;stroke-opacity:1"
         d="m 74.698741,735.72121 c 0,0 5.633,0.541 5.633,5.066 0,-4.35 5.738,-5.066 5.738,-5.066 z" /><path
         inkscape:connector-curvature="0"
         id="path4646"
         style="fill:#221e1f;fill-opacity:1;fill-rule:nonzero;stroke:none"
         d="m 79.389741,737.91421 c 0.844,6.368 0.929,19.339 0.929,19.339 0,0 0.092,-12.991 1.024,-19.351 z" /><path
         inkscape:connector-curvature="0"
         id="path4648"
         style="fill:none;stroke:#221e1f;stroke-width:0.18099999;stroke-linecap:round;stroke-linejoin:round;stroke-miterlimit:4;stroke-dasharray:none;stroke-opacity:1"
         d="m 79.389741,737.91421 c 0.844,6.368 0.929,19.339 0.929,19.339 0,0 0.092,-12.991 1.024,-19.351 z" /><path
         inkscape:connector-curvature="0"
         id="path4650"
         style="fill:#221e1f;fill-opacity:1;fill-rule:nonzero;stroke:none"
         d="m 80.318741,760.00321 c -0.711,0 -1.287,0.575 -1.287,1.285 0,0.712 0.576,1.288 1.287,1.288 0.71,0 1.287,-0.576 1.287,-1.288 0,-0.71 -0.577,-1.285 -1.287,-1.285 m 2.562,1.76 c -0.343,0.555 -1.183,1.611 -2.562,1.611 -1.378,0 -2.234,-1.054 -2.589,-1.608 -4.356,-0.078 -6.282,-0.334 -6.282,-0.334 0,0 8.871,-0.251 8.871,-4.179 0,3.928 8.427,4.179 8.427,4.179 0,0 -1.656,0.251 -5.865,0.331" /><path
         inkscape:connector-curvature="0"
         id="path4652"
         style="fill:none;stroke:#221e1f;stroke-width:0.18099999;stroke-linecap:butt;stroke-linejoin:miter;stroke-miterlimit:4;stroke-dasharray:none;stroke-opacity:1"
         d="m 80.318741,760.00321 c -0.711,0 -1.287,0.575 -1.287,1.285 0,0.712 0.576,1.288 1.287,1.288 0.71,0 1.287,-0.576 1.287,-1.288 0,-0.71 -0.577,-1.285 -1.287,-1.285 z m 2.562,1.76 c -0.343,0.555 -1.183,1.611 -2.562,1.611 -1.378,0 -2.234,-1.054 -2.589,-1.608 -4.356,-0.078 -6.282,-0.334 -6.282,-0.334 0,0 8.871,-0.251 8.871,-4.179 0,3.928 8.427,4.179 8.427,4.179 0,0 -1.656,0.251 -5.865,0.331 z" /><path
         inkscape:connector-curvature="0"
         id="path4654"
         style="fill:#ed2024;fill-opacity:1;fill-rule:nonzero;stroke:none"
         d="m 115.46974,756.56821 c -1.593,0.941 -3.364,1.41 -5.211,1.41 -5.821,0 -9.691,-4.193 -9.691,-9.871 0,-5.93 4.268,-9.875 9.513,-9.875 1.808,0 4.231,0.474 5.498,1.231 l 0.215,-3.507 c -1.917,-0.796 -4.268,-0.905 -5.752,-0.905 -7.992,0 -13.305999,5.135 -13.305999,13.164 0,7.775 5.639999,12.947 13.344999,12.947 1.955,0 3.868,-0.289 5.675,-1.086 z" /><path
         inkscape:connector-curvature="0"
         id="path4656"
         style="fill:#ed2024;fill-opacity:1;fill-rule:nonzero;stroke:none"
         d="m 135.68474,756.24321 c -1.774,1.158 -3.688,1.735 -6.943,1.735 -5.823,0 -9.694,-4.231 -9.694,-9.871 0,-5.93 4.269,-9.875 9.513,-9.875 2.495,0 3.144,0.253 4.049,0.436 v 7.666 h -5.315 v 2.966 h 8.931 v -13.129 c -1.374,-0.469 -3.759,-1.12 -7.703,-1.12 -7.99,0 -13.307,5.135 -13.307,13.164 0,7.775 5.639,12.947 13.345,12.947 3.686,0 5.315,-0.542 7.414,-1.267 z" /><path
         inkscape:connector-curvature="0"
         id="path4658"
         style="fill:#ed2024;fill-opacity:1;fill-rule:nonzero;stroke:none"
         d="m 156.44174,756.56821 c -1.592,0.941 -3.362,1.41 -5.208,1.41 -5.822,0 -9.691,-4.193 -9.691,-9.871 0,-5.93 4.266,-9.875 9.51,-9.875 1.807,0 4.233,0.474 5.498,1.231 l 0.218,-3.507 c -1.919,-0.796 -4.268,-0.905 -5.75,-0.905 -7.994,0 -13.311,5.135 -13.311,13.164 0,7.775 5.644,12.947 13.345,12.947 1.955,0 3.873,-0.289 5.68,-1.086 z" /></g></g></svg>